<mxfile host="65bd71144e">
    <diagram id="t364OgUUDv9qm5hheTeE" name="Page-1">
        <mxGraphModel dx="2314" dy="1393" grid="0" gridSize="10" guides="1" tooltips="1" connect="1" arrows="1" fold="1" page="0" pageScale="1" pageWidth="850" pageHeight="1100" math="0" shadow="0">
            <root>
                <mxCell id="0"/>
                <mxCell id="1" parent="0"/>
                <mxCell id="5" style="edgeStyle=none;html=1;entryX=0;entryY=0.5;entryDx=0;entryDy=0;" edge="1" parent="1" source="2" target="4">
                    <mxGeometry relative="1" as="geometry"/>
                </mxCell>
                <mxCell id="2" value="main.py" style="html=1;" vertex="1" parent="1">
                    <mxGeometry x="27" y="83" width="110" height="50" as="geometry"/>
                </mxCell>
                <mxCell id="3" value="rsa_functionality.py" style="html=1;" vertex="1" parent="1">
                    <mxGeometry x="-26" y="239" width="175" height="77" as="geometry"/>
                </mxCell>
                <mxCell id="12" style="edgeStyle=none;html=1;entryX=0;entryY=0.5;entryDx=0;entryDy=0;" edge="1" parent="1" source="4" target="6">
                    <mxGeometry relative="1" as="geometry"/>
                </mxCell>
                <mxCell id="27" style="edgeStyle=none;html=1;entryX=0.5;entryY=1;entryDx=0;entryDy=0;" edge="1" parent="1" target="7">
                    <mxGeometry relative="1" as="geometry">
                        <mxPoint x="172" y="104" as="sourcePoint"/>
                    </mxGeometry>
                </mxCell>
                <mxCell id="40" style="edgeStyle=none;html=1;entryX=0;entryY=0.25;entryDx=0;entryDy=0;" edge="1" parent="1" source="4" target="41">
                    <mxGeometry relative="1" as="geometry">
                        <mxPoint x="368.4187469482422" y="150.237548828125" as="targetPoint"/>
                        <Array as="points">
                            <mxPoint x="251" y="279"/>
                        </Array>
                    </mxGeometry>
                </mxCell>
                <mxCell id="69" style="edgeStyle=none;html=1;exitX=0.75;exitY=1;exitDx=0;exitDy=0;entryX=0;entryY=0.5;entryDx=0;entryDy=0;" edge="1" parent="1" source="4" target="15">
                    <mxGeometry relative="1" as="geometry"/>
                </mxCell>
                <mxCell id="4" value="menu" style="html=1;" vertex="1" parent="1">
                    <mxGeometry x="199" y="83" width="110" height="50" as="geometry"/>
                </mxCell>
                <mxCell id="13" style="edgeStyle=none;html=1;entryX=0;entryY=0.5;entryDx=0;entryDy=0;" edge="1" parent="1" source="6" target="11">
                    <mxGeometry relative="1" as="geometry"/>
                </mxCell>
                <mxCell id="25" style="edgeStyle=none;html=1;entryX=0;entryY=0.5;entryDx=0;entryDy=0;" edge="1" parent="1" source="6" target="24">
                    <mxGeometry relative="1" as="geometry"/>
                </mxCell>
                <mxCell id="50" style="edgeStyle=none;html=1;entryX=0.5;entryY=0;entryDx=0;entryDy=0;" edge="1" parent="1" source="6" target="15">
                    <mxGeometry relative="1" as="geometry"/>
                </mxCell>
                <mxCell id="6" value="public user" style="html=1;" vertex="1" parent="1">
                    <mxGeometry x="366" y="39" width="110" height="50" as="geometry"/>
                </mxCell>
                <mxCell id="23" style="edgeStyle=none;html=1;entryX=0;entryY=0.25;entryDx=0;entryDy=0;" edge="1" parent="1" source="7" target="3">
                    <mxGeometry relative="1" as="geometry">
                        <mxPoint x="175" y="-108.56248474121094" as="targetPoint"/>
                        <Array as="points">
                            <mxPoint x="173" y="-101"/>
                            <mxPoint x="-47" y="-101"/>
                            <mxPoint x="-44" y="199"/>
                        </Array>
                    </mxGeometry>
                </mxCell>
                <mxCell id="7" value="keys generated" style="html=1;" vertex="1" parent="1">
                    <mxGeometry x="119" y="-75" width="110" height="50" as="geometry"/>
                </mxCell>
                <mxCell id="22" style="edgeStyle=none;html=1;entryX=0;entryY=0.5;entryDx=0;entryDy=0;exitX=0.5;exitY=0;exitDx=0;exitDy=0;" edge="1" parent="1" source="30" target="3">
                    <mxGeometry relative="1" as="geometry">
                        <mxPoint x="-76" y="260" as="targetPoint"/>
                        <mxPoint x="575" y="33" as="sourcePoint"/>
                        <Array as="points">
                            <mxPoint x="660" y="-139"/>
                            <mxPoint x="-81" y="-127"/>
                            <mxPoint x="-62" y="204"/>
                        </Array>
                    </mxGeometry>
                </mxCell>
                <mxCell id="32" style="edgeStyle=none;html=1;entryX=0.5;entryY=1;entryDx=0;entryDy=0;" edge="1" parent="1" source="11" target="30">
                    <mxGeometry relative="1" as="geometry"/>
                </mxCell>
                <mxCell id="11" value="Type message, &lt;br&gt;encrypt and send" style="html=1;" vertex="1" parent="1">
                    <mxGeometry x="533" y="37" width="110" height="50" as="geometry"/>
                </mxCell>
                <mxCell id="51" style="edgeStyle=none;html=1;entryX=1;entryY=1;entryDx=0;entryDy=0;" edge="1" parent="1" source="15" target="4">
                    <mxGeometry relative="1" as="geometry"/>
                </mxCell>
                <mxCell id="70" style="edgeStyle=none;html=1;entryX=0.5;entryY=0;entryDx=0;entryDy=0;exitX=0;exitY=0.5;exitDx=0;exitDy=0;" edge="1" parent="1" source="15" target="68">
                    <mxGeometry relative="1" as="geometry"/>
                </mxCell>
                <mxCell id="15" value="exit" style="html=1;" vertex="1" parent="1">
                    <mxGeometry x="343" y="139" width="110" height="50" as="geometry"/>
                </mxCell>
                <mxCell id="36" style="edgeStyle=none;html=1;entryX=0;entryY=0.5;entryDx=0;entryDy=0;" edge="1" parent="1" source="24" target="34">
                    <mxGeometry relative="1" as="geometry"/>
                </mxCell>
                <mxCell id="24" value="Authenticate dig sig" style="html=1;" vertex="1" parent="1">
                    <mxGeometry x="533" y="105" width="110" height="50" as="geometry"/>
                </mxCell>
                <mxCell id="26" value="Message stored, encrypted and feedback is given to user" style="text;html=1;strokeColor=none;fillColor=none;align=center;verticalAlign=middle;whiteSpace=wrap;rounded=0;" vertex="1" parent="1">
                    <mxGeometry x="262" y="-173" width="149" height="30" as="geometry"/>
                </mxCell>
                <mxCell id="28" value="RSA keys stored" style="text;html=1;strokeColor=none;fillColor=none;align=center;verticalAlign=middle;whiteSpace=wrap;rounded=0;rotation=-35;" vertex="1" parent="1">
                    <mxGeometry x="149" y="-5" width="149" height="30" as="geometry"/>
                </mxCell>
                <mxCell id="29" value="Back to public user menu" style="text;html=1;strokeColor=none;fillColor=none;align=center;verticalAlign=middle;whiteSpace=wrap;rounded=0;" vertex="1" parent="1">
                    <mxGeometry x="476" y="-80" width="149" height="30" as="geometry"/>
                </mxCell>
                <mxCell id="30" value="Sent: Yes" style="rounded=1;whiteSpace=wrap;html=1;" vertex="1" parent="1">
                    <mxGeometry x="697" y="27.5" width="74" height="37" as="geometry"/>
                </mxCell>
                <mxCell id="78" style="edgeStyle=none;html=1;entryX=0;entryY=0.75;entryDx=0;entryDy=0;" edge="1" parent="1" source="34" target="3">
                    <mxGeometry relative="1" as="geometry">
                        <Array as="points">
                            <mxPoint x="1086" y="128"/>
                            <mxPoint x="1092" y="642"/>
                            <mxPoint x="-56" y="649"/>
                            <mxPoint x="-54" y="294"/>
                        </Array>
                    </mxGeometry>
                </mxCell>
                <mxCell id="34" value="Message to Authenticate:Yes" style="rounded=1;whiteSpace=wrap;html=1;" vertex="1" parent="1">
                    <mxGeometry x="685" y="108" width="98" height="44" as="geometry"/>
                </mxCell>
                <mxCell id="38" value="Check for dig sig, authenticate and show if validated" style="text;html=1;strokeColor=none;fillColor=none;align=center;verticalAlign=middle;whiteSpace=wrap;rounded=0;" vertex="1" parent="1">
                    <mxGeometry x="856" y="83" width="149" height="30" as="geometry"/>
                </mxCell>
                <mxCell id="46" style="edgeStyle=none;html=1;entryX=0;entryY=0.5;entryDx=0;entryDy=0;" edge="1" parent="1" source="41" target="42">
                    <mxGeometry relative="1" as="geometry"/>
                </mxCell>
                <mxCell id="47" style="edgeStyle=none;html=1;entryX=0;entryY=0.5;entryDx=0;entryDy=0;" edge="1" parent="1" source="41" target="43">
                    <mxGeometry relative="1" as="geometry"/>
                </mxCell>
                <mxCell id="48" style="edgeStyle=none;html=1;entryX=0;entryY=0.5;entryDx=0;entryDy=0;" edge="1" parent="1" source="41" target="44">
                    <mxGeometry relative="1" as="geometry"/>
                </mxCell>
                <mxCell id="49" style="edgeStyle=none;html=1;entryX=0;entryY=0.5;entryDx=0;entryDy=0;" edge="1" parent="1" source="41" target="45">
                    <mxGeometry relative="1" as="geometry"/>
                </mxCell>
                <mxCell id="52" style="edgeStyle=none;html=1;entryX=0.5;entryY=1;entryDx=0;entryDy=0;" edge="1" parent="1" source="41" target="15">
                    <mxGeometry relative="1" as="geometry"/>
                </mxCell>
                <mxCell id="41" value="key owner" style="html=1;" vertex="1" parent="1">
                    <mxGeometry x="343" y="266" width="110" height="50" as="geometry"/>
                </mxCell>
                <mxCell id="56" style="edgeStyle=none;html=1;entryX=0;entryY=0.5;entryDx=0;entryDy=0;" edge="1" parent="1" source="42" target="55">
                    <mxGeometry relative="1" as="geometry"/>
                </mxCell>
                <mxCell id="42" value="Decrypt message" style="html=1;" vertex="1" parent="1">
                    <mxGeometry x="525" y="180" width="110" height="50" as="geometry"/>
                </mxCell>
                <mxCell id="61" style="edgeStyle=none;html=1;entryX=0;entryY=0.5;entryDx=0;entryDy=0;" edge="1" parent="1" source="43" target="58">
                    <mxGeometry relative="1" as="geometry"/>
                </mxCell>
                <mxCell id="43" value="Type message, sign &lt;br&gt;and send" style="html=1;" vertex="1" parent="1">
                    <mxGeometry x="525" y="251" width="110" height="50" as="geometry"/>
                </mxCell>
                <mxCell id="62" style="edgeStyle=none;html=1;entryX=0;entryY=0.5;entryDx=0;entryDy=0;" edge="1" parent="1" source="44" target="59">
                    <mxGeometry relative="1" as="geometry"/>
                </mxCell>
                <mxCell id="44" value="Show keys" style="html=1;" vertex="1" parent="1">
                    <mxGeometry x="525" y="322" width="110" height="50" as="geometry"/>
                </mxCell>
                <mxCell id="63" style="edgeStyle=none;html=1;entryX=0;entryY=0.5;entryDx=0;entryDy=0;" edge="1" parent="1" source="45" target="60">
                    <mxGeometry relative="1" as="geometry"/>
                </mxCell>
                <mxCell id="45" value="Generate new keys" style="html=1;" vertex="1" parent="1">
                    <mxGeometry x="525" y="393" width="110" height="50" as="geometry"/>
                </mxCell>
                <mxCell id="57" style="edgeStyle=none;html=1;entryX=0;entryY=1;entryDx=0;entryDy=0;" edge="1" parent="1" source="55" target="3">
                    <mxGeometry relative="1" as="geometry">
                        <mxPoint x="865.2187957763672" y="207.5" as="targetPoint"/>
                        <Array as="points">
                            <mxPoint x="1040" y="210"/>
                            <mxPoint x="1046" y="623"/>
                            <mxPoint x="455" y="633"/>
                            <mxPoint x="-33" y="627"/>
                        </Array>
                    </mxGeometry>
                </mxCell>
                <mxCell id="55" value="Decrypt: Yes" style="rounded=1;whiteSpace=wrap;html=1;" vertex="1" parent="1">
                    <mxGeometry x="687" y="189" width="74" height="37" as="geometry"/>
                </mxCell>
                <mxCell id="64" style="edgeStyle=none;html=1;entryX=0.25;entryY=1;entryDx=0;entryDy=0;" edge="1" parent="1" source="58" target="3">
                    <mxGeometry relative="1" as="geometry">
                        <Array as="points">
                            <mxPoint x="1003" y="292"/>
                            <mxPoint x="1024" y="604"/>
                            <mxPoint x="-8" y="601"/>
                        </Array>
                    </mxGeometry>
                </mxCell>
                <mxCell id="58" value="Sign: Yes" style="rounded=1;whiteSpace=wrap;html=1;" vertex="1" parent="1">
                    <mxGeometry x="687" y="264" width="74" height="37" as="geometry"/>
                </mxCell>
                <mxCell id="65" style="edgeStyle=none;html=1;entryX=0.5;entryY=1;entryDx=0;entryDy=0;" edge="1" parent="1" source="59" target="3">
                    <mxGeometry relative="1" as="geometry">
                        <Array as="points">
                            <mxPoint x="971" y="345"/>
                            <mxPoint x="992" y="576"/>
                            <mxPoint x="28" y="578"/>
                        </Array>
                    </mxGeometry>
                </mxCell>
                <mxCell id="59" value="Show keys: Yes" style="rounded=1;whiteSpace=wrap;html=1;" vertex="1" parent="1">
                    <mxGeometry x="687" y="328.5" width="74" height="37" as="geometry"/>
                </mxCell>
                <mxCell id="66" style="edgeStyle=none;html=1;entryX=0.75;entryY=1;entryDx=0;entryDy=0;" edge="1" parent="1" source="60" target="3">
                    <mxGeometry relative="1" as="geometry">
                        <Array as="points">
                            <mxPoint x="920" y="422"/>
                            <mxPoint x="952" y="545"/>
                            <mxPoint x="64" y="545"/>
                        </Array>
                    </mxGeometry>
                </mxCell>
                <mxCell id="60" value="New keys: Yes" style="rounded=1;whiteSpace=wrap;html=1;" vertex="1" parent="1">
                    <mxGeometry x="687" y="403" width="74" height="37" as="geometry"/>
                </mxCell>
                <mxCell id="68" value="Menu - Exit: End: Yes" style="rounded=1;whiteSpace=wrap;html=1;" vertex="1" parent="1">
                    <mxGeometry x="276" y="210" width="74" height="37" as="geometry"/>
                </mxCell>
                <mxCell id="71" value="Check for any encrypted messages, and perform decryption" style="text;html=1;strokeColor=none;fillColor=none;align=center;verticalAlign=middle;whiteSpace=wrap;rounded=0;" vertex="1" parent="1">
                    <mxGeometry x="850" y="165" width="149" height="30" as="geometry"/>
                </mxCell>
                <mxCell id="72" value="Type message, dig sig and send" style="text;html=1;strokeColor=none;fillColor=none;align=center;verticalAlign=middle;whiteSpace=wrap;rounded=0;" vertex="1" parent="1">
                    <mxGeometry x="842" y="253" width="149" height="30" as="geometry"/>
                </mxCell>
                <mxCell id="74" value="Show public/private keys" style="text;html=1;strokeColor=none;fillColor=none;align=center;verticalAlign=middle;whiteSpace=wrap;rounded=0;" vertex="1" parent="1">
                    <mxGeometry x="823" y="316" width="149" height="30" as="geometry"/>
                </mxCell>
                <mxCell id="75" value="Generate new keys" style="text;html=1;strokeColor=none;fillColor=none;align=center;verticalAlign=middle;whiteSpace=wrap;rounded=0;" vertex="1" parent="1">
                    <mxGeometry x="798" y="391" width="149" height="30" as="geometry"/>
                </mxCell>
                <mxCell id="76" value="RSA_FUNCTIONALITY:&lt;br&gt;DISPLAY RESULTS TO USER" style="text;html=1;strokeColor=none;fillColor=none;align=center;verticalAlign=middle;whiteSpace=wrap;rounded=0;" vertex="1" parent="1">
                    <mxGeometry x="-9" y="200" width="149" height="30" as="geometry"/>
                </mxCell>
                <mxCell id="79" value="" style="endArrow=none;dashed=1;html=1;dashPattern=1 3;strokeWidth=2;exitX=1;exitY=0.5;exitDx=0;exitDy=0;entryX=0.5;entryY=0;entryDx=0;entryDy=0;" edge="1" parent="1" source="30" target="6">
                    <mxGeometry width="50" height="50" relative="1" as="geometry">
                        <mxPoint x="809" y="4" as="sourcePoint"/>
                        <mxPoint x="433" y="-51" as="targetPoint"/>
                        <Array as="points">
                            <mxPoint x="816" y="48"/>
                            <mxPoint x="830" y="-51"/>
                            <mxPoint x="454" y="-39"/>
                        </Array>
                    </mxGeometry>
                </mxCell>
                <mxCell id="80" value="" style="endArrow=none;dashed=1;html=1;dashPattern=1 3;strokeWidth=2;exitX=1;exitY=0.25;exitDx=0;exitDy=0;" edge="1" parent="1" source="34">
                    <mxGeometry width="50" height="50" relative="1" as="geometry">
                        <mxPoint x="451" y="200" as="sourcePoint"/>
                        <mxPoint x="820" y="44" as="targetPoint"/>
                    </mxGeometry>
                </mxCell>
                <mxCell id="81" value="Back to key owner menu" style="text;html=1;strokeColor=none;fillColor=none;align=center;verticalAlign=middle;whiteSpace=wrap;rounded=0;" vertex="1" parent="1">
                    <mxGeometry x="327" y="454" width="149" height="30" as="geometry"/>
                </mxCell>
                <mxCell id="82" value="" style="endArrow=none;dashed=1;html=1;dashPattern=1 3;strokeWidth=2;entryX=1;entryY=1;entryDx=0;entryDy=0;" edge="1" parent="1" target="55">
                    <mxGeometry width="50" height="50" relative="1" as="geometry">
                        <mxPoint x="787" y="314" as="sourcePoint"/>
                        <mxPoint x="501" y="150" as="targetPoint"/>
                    </mxGeometry>
                </mxCell>
                <mxCell id="83" value="" style="endArrow=none;dashed=1;html=1;dashPattern=1 3;strokeWidth=2;entryX=1;entryY=0;entryDx=0;entryDy=0;" edge="1" parent="1" target="59">
                    <mxGeometry width="50" height="50" relative="1" as="geometry">
                        <mxPoint x="787" y="313" as="sourcePoint"/>
                        <mxPoint x="501" y="150" as="targetPoint"/>
                    </mxGeometry>
                </mxCell>
                <mxCell id="84" value="" style="endArrow=none;dashed=1;html=1;dashPattern=1 3;strokeWidth=2;entryX=0.5;entryY=1;entryDx=0;entryDy=0;" edge="1" parent="1" target="58">
                    <mxGeometry width="50" height="50" relative="1" as="geometry">
                        <mxPoint x="785" y="313" as="sourcePoint"/>
                        <mxPoint x="501" y="150" as="targetPoint"/>
                    </mxGeometry>
                </mxCell>
                <mxCell id="85" value="" style="endArrow=none;dashed=1;html=1;dashPattern=1 3;strokeWidth=2;" edge="1" parent="1">
                    <mxGeometry width="50" height="50" relative="1" as="geometry">
                        <mxPoint x="788" y="482" as="sourcePoint"/>
                        <mxPoint x="786" y="312" as="targetPoint"/>
                    </mxGeometry>
                </mxCell>
                <mxCell id="86" value="" style="endArrow=none;dashed=1;html=1;dashPattern=1 3;strokeWidth=2;entryX=1;entryY=0;entryDx=0;entryDy=0;" edge="1" parent="1" target="60">
                    <mxGeometry width="50" height="50" relative="1" as="geometry">
                        <mxPoint x="787" y="403" as="sourcePoint"/>
                        <mxPoint x="501" y="150" as="targetPoint"/>
                    </mxGeometry>
                </mxCell>
                <mxCell id="87" value="" style="endArrow=none;dashed=1;html=1;dashPattern=1 3;strokeWidth=2;" edge="1" parent="1">
                    <mxGeometry width="50" height="50" relative="1" as="geometry">
                        <mxPoint x="321" y="482" as="sourcePoint"/>
                        <mxPoint x="788" y="482" as="targetPoint"/>
                    </mxGeometry>
                </mxCell>
                <mxCell id="88" value="" style="endArrow=none;dashed=1;html=1;dashPattern=1 3;strokeWidth=2;entryX=0.132;entryY=1.081;entryDx=0;entryDy=0;entryPerimeter=0;" edge="1" parent="1" target="41">
                    <mxGeometry width="50" height="50" relative="1" as="geometry">
                        <mxPoint x="322" y="480" as="sourcePoint"/>
                        <mxPoint x="501" y="150" as="targetPoint"/>
                    </mxGeometry>
                </mxCell>
                <mxCell id="89" value="MAIN:&amp;nbsp;&lt;br&gt;USER TYPES MENUS" style="text;html=1;strokeColor=none;fillColor=none;align=center;verticalAlign=middle;whiteSpace=wrap;rounded=0;" vertex="1" parent="1">
                    <mxGeometry x="5" y="47" width="149" height="30" as="geometry"/>
                </mxCell>
            </root>
        </mxGraphModel>
    </diagram>
</mxfile>